# xmcd
#
# Track frame offsets: 
#        150
#        19740
#        36285
#        52522
#        76352
#        95982
#        112077
#        126847
#        144945
#        168167
#        185172
#        202350
#
# Disc length: 2919 seconds
#
# Revision: 1
# Processed by: cddbd v1.5.2PL0 Copyright (c) Steve Scherf et al.
# Submitted via: ExactAudioCopy v0.99pb5
#
DISCID=a90b650c
DTITLE=Adriano Pappalardo - I Grandi Successi Originali CD2
DYEAR=2000
DGENRE=pop
TTITLE0=Cavallo
TTITLE1=Isole azzurre
TTITLE2=Mi basta così
TTITLE3=Non si può
TTITLE4=Io e te
TTITLE5=Schik na na schik ne ue
TTITLE6=Ai miei figli che dirò
TTITLE7=Donna mia
TTITLE8=Voglio lei
TTITLE9=Hi-Fi
TTITLE10=Non mi lasciare mai
TTITLE11=Ricominciamo
EXTD=
EXTT0=
EXTT1=
EXTT2=
EXTT3=
EXTT4=
EXTT5=
EXTT6=
EXTT7=
EXTT8=
EXTT9=
EXTT10=
EXTT11=
PLAYORDER=
